# xmcd
# 
# Track frame offsets:
#     150
#     17265
#     49632
#     70971
#     83154
#     104779
#     136811
#     154650
#     187515
#     200272
#     215018
#     227814
# 
# Disc length: 3183
# 
# Revision: 0
# Processed by: cddbd v1.5.2PL0 Copyright (c) Steve Scherf et al.
# Submitted via: BonkEnc v1.0.8
# 
DISCID=970c6d0c
DTITLE=The Ben Poole Band - The Ben Poole Band
DYEAR=2008
DGENRE=Blues
TTITLE0=Pack Up, Go Home
TTITLE1=I'm Losin' You
TTITLE2=Please, Please, Please (Be Mine)
TTITLE3=Foolin' Around
TTITLE4=Liquid Wonderment
TTITLE5=Hear My Train A Comin'
TTITLE6=Hit and Run
TTITLE7=Mean Disposition
TTITLE8=Blitzkrieg Blues
TTITLE9=Never Know
TTITLE10=Just Rock 'n' Roll
TTITLE11=Sussed Out
EXTD=
EXTT0=
EXTT1=
EXTT2=
EXTT3=
EXTT4=
EXTT5=
EXTT6=
EXTT7=
EXTT8=
EXTT9=
EXTT10=
EXTT11=
PLAYORDER=
